<svg xmlns="http://www.w3.org/2000/svg" width="1054" height="614" x="0" y="0" version="1.1"><style>.st1{fill:#fff}.st2{fill:#bb25e2}.st3{fill:#fbd036}.st4{fill:#00deb7}</style><path d="M533.4 42.8c-135.8 0-245.9 110.1-245.9 245.9s110.1 245.9 245.9 245.9 245.9-110.1 245.9-245.9S669.2 42.8 533.4 42.8z" style="opacity:.3098;fill:none;stroke:#fff;stroke-width:2"/><path d="m199.273 277.5 5.1 99.6c.6 10.9-2.7 19.3-9.6 25.3-7 6-16.3 9.3-28.1 9.9l-69.1 3.5-9-176.9 59.2-3c10.9-.6 20 .2 27.2 2.2 7.2 2 13 6.2 17.2 12.4 4.1 6.3 6.5 15.3 7.1 27zm-41 92.3-4.7-91.2c-.2-3.3-1.3-6.2-3.3-8.9-2-2.6-4.6-3.9-7.5-3.7l-7.2.4 6 117.5 7.2-.4c3-.2 5.3-1.6 7.1-4.3 1.8-2.8 2.6-5.9 2.4-9.4zM271.875 225.846c17.7-.9 31.4 2.6 41 10.6 9.7 8 15 21.4 16 40.2l4 77.3c1 18.7-2.9 32.5-11.7 41.5-8.7 9-22 13.9-39.9 14.8-17.8.9-31.6-2.6-41.1-10.5-9.6-7.9-14.9-21.3-15.8-40.3l-4-77.3c-.9-18.7 2.9-32.5 11.7-41.5 8.7-8.9 21.9-13.9 39.8-14.8zm-6.6 41.1 5.3 103.1c.2 3.5 1 6.1 2.6 8 1.6 1.8 3.8 2.7 6.6 2.5 2.8-.2 4.9-1.2 6.3-3.2 1.4-2 2-4.7 1.8-8.2l-5.3-103.1c-.2-3.5-1.1-6.1-2.6-7.9-1.6-1.8-3.8-2.7-6.6-2.5-5.8.3-8.5 4.1-8.1 11.3zM424.978 325.39h.5l5.4-103.9 61.5-3.1 9 176.9-38.6 2-6.7-131.3h-.5l-12.4 132.3-28.7 1.5-25.9-130.4h-.5l6.7 131.3-38.6 2-9-176.9 60.7-3.1 17.1 102.7z" class="st1"/><path d="M637.617 207.173c17.2-.9 30.2 3 39.1 11.7 8.9 8.7 13.7 20.2 14.4 34.5l1.3 26-45.6 2.3-1.8-34.7c-.2-3.5-.9-6-2.1-7.7-1.2-1.7-3.4-2.4-6.6-2.3-2.6.1-4.4 1.4-5.3 3.8-.9 2.4-1.2 4.9-1.1 7.5l5.3 103.1c.1 2.6.7 5.1 1.9 7.4 1.1 2.3 3 3.3 5.6 3.2 3.1-.2 5.2-1.3 6.3-3.3 1.1-2 1.5-5.1 1.3-9.3l-1.9-38.1 45.6-2.3 1.5 30.2c.5 9.1-1 17.5-4.4 25.3-3.4 7.8-8.9 14.1-16.5 19s-17.1 7.6-28.5 8.2c-17.7.9-31.3-2.6-41-10.6s-15-21.4-16-40.2l-4-77.3c-.9-17.5 3.1-31.1 12.1-40.6 8.9-9.6 22.4-14.9 40.4-15.8zM761.189 200.899c17.7-.9 31.4 2.6 41 10.6 9.7 8 15 21.4 16 40.2l4 77.3c1 18.7-2.9 32.5-11.7 41.5-8.7 9-22 13.9-39.9 14.8-17.8.9-31.6-2.6-41.1-10.5-9.6-7.9-14.9-21.3-15.8-40.3l-4-77.3c-.9-18.7 2.9-32.5 11.7-41.5 8.7-9 22-13.9 39.8-14.8zm-6.6 41.1 5.3 103.1c.2 3.5 1 6.1 2.6 8 1.6 1.8 3.8 2.7 6.6 2.5 2.8-.2 4.9-1.2 6.3-3.2 1.4-2 2-4.7 1.8-8.2l-5.2-103.1c-.2-3.5-1.1-6.1-2.6-7.9-1.6-1.8-3.8-2.7-6.6-2.5-5.8.2-8.5 4-8.2 11.3zM914.391 300.444h.5l5.4-103.9 61.5-3.1 9 176.9-38.6 2-6.8-131.4h-.5l-12.4 132.3-28.7 1.5-25.8-130.4h-.5l6.7 131.3-38.6 2-9-176.9 60.7-3.1 17.1 102.8z" class="st2"/><path d="m491.986 143.073-10.9.6 3.3 57.2-18.5 1.1-3.3-57.2-10.9.6-.8-14.4 40.3-2.3.8 14.4zM517.427 153.144l7-.4-1.5-26 18.4-1.1 4.1 71.6-18.4 1.1-1.7-30-7 .4 1.7 30-18.4 1.1-4.1-71.6 18.4-1.1 1.5 26zM581.884 137.886l-12.8.7.8 13.1 11.9-.7.8 13.8-11.9.7.9 15.8 13.8-.8.8 14.4-32.2 1.9-4.1-71.6 31.2-1.8.8 14.5z" class="st3"/><path d="M462.845 547.633c.8 3.9.8 7.7 0 11.2-.8 3.5-2.6 7.6-5.3 12.1-4.6 7.7-10.2 14.3-16.9 19.9-6.6 5.6-13.1 9.2-19.5 10.8-1.8.4-3.5.7-5 .7s-3.2-.2-5.2-.6c-2.9-.5-5.6-1.3-7.9-2.6-2.3-1.3-5.1-3.2-8.2-5.8-4.7-3.6-6.8-6.3-6.2-8.2.4-.8 1.2-.9 2.4-.1.7.3 1.3.7 2 1.3.7.6 1.2 1.1 1.6 1.6.4.5 1.2 1 2.4 1.5s2.3 1 3.4 1.3c2 .5 3.5.7 4.5.6.9-.2 2.6-.7 5.1-1.6 5.1-2.2 10.2-5.6 15.2-10.2 5.1-4.7 9.3-9.8 12.8-15.3 3.4-5.5 5.4-10.5 6-14.9.4-3.5.5-5.8.2-7-.3-1.1-1.1-1.8-2.5-2-.6-.2-2.7-.2-6.1 0-3.5.1-7.3.3-11.5.6-7.1.6-13 1-17.6 1.1-4.6.1-8.6-.2-11.8-1-3.2-.8-6.4-2.1-9.5-4-3.1-1.9-6.9-4.4-11.2-7.4-1.3-.9-2.7-2.1-4.3-3.7-1.6-1.6-2.9-3-3.9-4.2-1.7-2.1-2.9-3.8-3.5-5-.6-1.3-1.3-3.4-2-6.3-.6-2.2-.9-4-1.1-5.3-.2-1.3-.2-2.6 0-4s.6-3.4 1.2-6.1c1.4-6.7 3.8-13.4 7.1-20s7.5-13.5 12.6-20.5c6.5-8.8 14.7-17.4 24.6-25.8 9.8-8.5 19.9-15.5 30.2-21 7.7-4.1 13.9-6.4 18.7-6.6 4.8-.3 8.6 1.3 11.6 4.9.8 1 1.7 1.9 2.6 2.9.9 1 1.6 1.6 2.2 1.9 2.5 1.8 4.4 4.5 5.8 8.1 1.4 3.7 1.9 7.6 1.6 11.8-.2 3.2-1.2 7.3-2.9 12.3-1.7 5-3.8 10.4-6.3 16.1-2.5 5.7-5.3 11.2-8.4 16.5-2.3 3.8-4.6 7.3-6.9 10.4-2.3 3.1-3.9 4.7-4.9 5-.7.2-1.5-.6-2.5-2.4-1-1.8-1.4-3.5-1.4-5.3 0-1.3.3-3.8 1-7.4.7-3.6 1.7-7.8 3-12.6 1.2-4.8 2.6-9.7 4.1-14.5 1.1-3.4 2.1-7.2 3.1-11.5 1-4.2 1.8-8 2.5-11.3.7-3.3.9-5.1.9-5.6-.2-.7-1.9-.3-5 1.3-3.2 1.5-6.9 3.6-11.3 6.4-4.3 2.7-8.5 5.6-12.5 8.7-21.9 16.4-37.5 35.6-46.8 57.5-1.7 4-3 8.2-4 12.6s-1.3 7.8-1 10.3c.3 2.3 1.1 3.9 2.3 4.9 1.3.9 3.6 1.6 6.9 1.9 1.5.2 3.2.3 5 .3 1.8 0 4.4-.1 7.9-.4 3.5-.3 8.6-.7 15.2-1.4 15.7-1.2 26.3.9 31.8 6.3.8.8 1.8 1.7 2.9 2.5 1.1.8 2.1 1.5 3 2 2.1 1.3 4.1 3 5.9 5.2 1.4 1.6 2.4 2.9 2.9 4 .2.7.6 2.5.9 5.1zm-4.7-98.1c-.4.2-.7 1-1.1 2.3-.3 1.3-.4 1.9-.1 1.8.2 0 .5-.9 1.2-2.5.5-1.5.5-2 0-1.6zm-6.4 28.5.6-1.2-.9.9c-.8.9-1.2 1.5-1.1 1.8.2.7.6.2 1.4-1.5zm5-11c2.1-5.1 3.4-8.2 3.7-9.2.4-1 .2-.9-.4.1-.3.5-.9 1.7-1.8 3.7-.9 1.9-1.8 4-2.7 6.2-.9 2.2-1.7 4.1-2.3 5.7-.6 1.5-.8 2.2-.7 2.1.2-.3.7-1.3 1.5-2.9.9-1.6 1.8-3.5 2.7-5.7zm8.2-30.7c.5-2.2.5-2.8.2-1.9-.4.9-1.7 4.8-4 11.8-.9 2.9-2.1 6.4-3.7 10.7-1.5 4.2-3 7.9-4.3 10.9-2.2 5.9-3.7 9.7-4.3 11.5-.6 1.8-.6 2.2-.1 1.3.2-.3.8-1.6 1.7-3.9.9-2.2 2-4.8 3.2-7.8 2.6-6.7 5-13.2 7.2-19.4 2.2-6.2 3.5-10.6 4.1-13.2zm-67.4 16.3c-.3.5-.9 1.2-1.6 2-.8.8-1.4 1.6-2 2.3-2.2 2.5-4.6 5.6-7.1 9.5-2.5 3.8-4.9 7.8-7.1 12-2.2 4.2-4 8.2-5.4 12.1-1.5 3.9-2.1 5.7-1.7 5.2.4-.5 1.5-2.9 3.4-7.2.8-2 2.1-4.6 3.6-7.7 1.6-3.1 3.1-5.8 4.4-8.1 1.5-2.4 3.2-5.1 5.1-7.9 2-2.9 3.6-5.1 5-6.8 1.5-1.7 2.7-3.2 3.7-4.5.9-1.3 1.4-2 1.4-2.1 0-.2-.6.2-1.7 1.2zm-5.9 2.9c-.3.4-.6.7-.9 1.1-.2.3-.3.5-.3.5.2.8.7.3 1.4-1.5.4-.9.6-1.3.6-1.3s-.3.4-.8 1.2zm-19.2 25.9c-.5.7-1.2 2-2 3.9s-1.1 2.8-.8 2.7c.3-.1 1-1.4 2.1-4.1 1.2-2.6 1.4-3.4.7-2.5zm-4.7 20.3c0 .1.2-.2.6-.9.4-.8.8-1.9 1.2-3.3.4-1.3 1-2.9 1.6-4.9.7-2 1.3-3.7 1.9-5 .5-1.5 1.6-3.7 3.1-6.8 1.5-3.1 3.1-6 4.8-8.8 2.7-4.8 4.1-7.4 4.3-7.9.2-.4-.7.7-2.7 3.5-1 1.7-2.3 3.9-3.8 6.4-1.5 2.5-2.7 4.7-3.6 6.6-1.2 2.4-2.3 5.1-3.5 8.2-1.2 3.1-2.1 5.9-2.9 8.4-.8 2.4-1.1 3.9-1 4.5zm80.9 55.6c-.5 2.2-.6 3.4-.5 3.5.2.1.6-1 1.4-3.2.6-2.4.8-3.5.5-3.4 0-.2-.2.1-.5.8-.3.6-.6 1.4-.9 2.3zm.1 5.8c-1.3 2.7-1.9 4.1-2 4.2 0 .2.5-.6 1.6-2.2.6-1 1.3-2.2 1.9-3.6.6-1.3 1.1-2.4 1.5-3.3.6-1.8 1-3.3 1.2-4.5.2-1.2.2-1.8-.1-1.8-.3.1-.6 1-1 2.9-.2.6-.5 1.8-1.2 3.4-.6 1.8-1.2 3.4-1.9 4.9zm-1.5 8.4c.2-.8.4-1.2.4-1.2s-.3.4-.9 1.1c-.8.9-1.1 1.6-1.1 1.8.1.3.2.3.5 0 .4-.3.8-.9 1.1-1.7zm6.7-10.8c.2-.5.1-.5-.4 0-.4.5-.9 1.3-1.5 2.5-1.8 3.1-2.8 5-3 5.8-.2.7.3-.1 1.7-2.3.8-1.1 1.5-2.2 2.2-3.3.6-1.3 1-2.1 1-2.7zM547.511 557.842c-1.3-.6-2.4-.7-3.2-.5-1 .2-2.7-.3-5.2-1.6s-4.5-2.8-6.1-4.5c-2.2-2.3-4.1-4.9-5.5-7.9-1.5-3-2.8-6.9-4.1-11.8-1.2-5-2.2-9.9-2.7-14.5-.6-4.7-1-10.6-1.3-17.8-.1-2.8-.3-5.2-.4-7.2-.1-2-.3-3.1-.5-3.2-.2-.2-.9.6-1.9 2.6-1.1 2-2.2 4.5-3.5 7.5-1.2 3.1-2.4 6.2-3.5 9.5-.7 2.4-1.6 5.8-2.8 10.2-1.1 4.4-2.3 9.2-3.5 14.4-1.2 5.1-2.3 10-3.3 14.5-.9 4.5-1.6 7.9-1.9 10.2-.4 2.5-1 4-1.7 4.5s-1.9.4-3.6-.6c-1.7-.8-2.9-.9-3.7-.4-.9.5-2.2.3-3.7-.6-2.2-1.1-4.2-4.2-5.9-9.3-1.7-5.1-3-11.8-3.9-20.1-.9-8.3-1.3-17.7-1.2-28.1 0-6.5.4-14 1.2-22.5.8-8.5 1.8-17.2 3-26s2.5-17.1 4-24.9c1.5-7.8 2.9-14.3 4.5-19.6 3.2-11 6.3-14.6 9.5-10.8.9 1.3 1.5 1.6 1.8 1.1.3-.4.6-.3.7.2.2.7.6 1 1.3.8.8-.2 1.7.1 2.5.9.9.8 1.5 1.9 1.8 3.3.4 1.5.4 5.1 0 10.6s-1.1 12.5-2.1 20.9c-1.1 8.3-1.9 14.9-2.5 20-.6 5-1.1 9.5-1.4 13.2-.3 3.8-.7 8-1.2 12.5-.4 5.3-.8 10.3-1 14.9-.2 4.7-.4 8.4-.5 11.4-.1 2.9 0 4.5.2 4.7.2.1.5-.8 1.1-2.7.6-1.9 1.2-4.2 1.8-6.9 1.3-4.5 2.6-8.9 4-13.2 1.4-4.4 2.8-8.2 4.2-11.5 1.4-3.3 2.5-5.6 3.4-6.9 1.4-2 3.1-3.3 5-4 1.9-.7 3.6-.6 5.2.4.4.5 1.1.8 2.1 1 1 .2 2 .3 2.9.4 2.1.1 4.2.7 6.2 1.9 2.1 1.2 3.6 2.7 4.7 4.5 1.2 2.1 2.2 5.5 2.9 10.4.7 4.9 1 10.6.9 17.1.1 8 .3 14.6.6 19.9.3 5.3 1.1 10 2.1 14.4 1.3 5.2 2.5 8.7 3.7 10.4 1.2 1.8 2.9 2.8 5 3.2 2.2.3 3.4.8 3.6 1.2.3.5-.1 1.3-1.1 2.6-1.9 2.3-4.4 2.9-7 1.8zm-16.1-69.8c0 1 .2 1.3.7.9.2-.3.1-.8-.4-1.5s-.6-.6-.3.6zm-32.6-79.1c-.1-.3-.2-.2-.5.3s-.5 1.2-.7 2c-.5 2.2-.7 3.6-.5 4.1.1.3.4-.5.9-2.4.2-.8.4-1.6.6-2.5.1-.9.2-1.3.2-1.5zm-6.3 7.1c-.1 0-.4.9-.9 2.7-.5 1.7-.6 2.8-.5 3.2.1.4.2.4.4-.1s.4-1.5.8-3.1c.3-1.8.4-2.7.2-2.7zm-6.3 122.4c-1-10.6-1.5-21.1-1.3-31.6.1-10.5.9-22.9 2.4-37.2.4-3.8.9-8.3 1.6-13.5.7-5.2 1.5-10.6 2.4-16.3.9-5.6 1.8-11 2.6-16.2.9-5.2 1.7-9.6 2.4-13.2.3-1.8.5-3.4.8-4.8.2-1.4.3-2.2.1-2.3-.2-.2-.8 1.6-1.6 5.4-.8 3.8-1.7 8.7-2.7 14.5-1 5.8-2 11.8-3 18-1 6.2-1.7 11.5-2.3 15.9-2.3 19.7-3.6 36.7-3.8 51.1-.2 14.3.6 27.2 2.4 38.7.7 3.8 1 4.9.9 3.3.1-1.7-.3-5.6-.9-11.8zm2.3-.6-.6-2.5v2.7c0 .6 0 1.3.1 2.3.1.9.2 1.7.3 2.3l.5 1.9.1-2c0-.6 0-1.4-.1-2.3-.1-1.1-.2-1.8-.3-2.4zm-.8-10c-.1-2.1-.1-5.1 0-9.1 0-4 .1-7.7.1-10.9.1-3.9.2-7.7.4-11.4.2-3.8.5-8.1.9-13s1-11 1.7-18.1c.2-2.1.7-5.9 1.4-11.3.7-5.5 1.5-10.9 2.4-16.5.8-5.6 1.5-10.4 2-14.4.5-4.1.7-6.1.7-6.1-.2-.1-.6 1.3-1.2 4.3s-1.2 6.9-2 11.7c-.7 4.8-1.4 10-2.1 15.5-.7 5.5-1.4 10.9-2 16.1-.6 5.2-1.1 9.6-1.4 13.2-.6 6.7-1 13.6-1.4 20.7-.4 7.1-.5 13.6-.5 19.5.1 5.8.2 10.2.5 13.1.5 3.3.7 2.3.5-3.3zm44.5-34c-.1-.9-.1-.9-.2.1-.1.9-.1 2.5-.2 4.7v6.1c0 1.8.1 2.9.4 3.2.1.6.2-.1.3-1.9.1-1.8.1-4 0-6.5s-.2-4.4-.3-5.7zm-6.6-7.5c.3 1.6.5 2.2.7 1.8.4-.7.3-1.6-.2-2.6-.3-.8-.5-1.2-.5-1.1v1.9zm.6 4.8c.2 1 .5 1.3.7.9.2-.3.1-.9-.4-1.7-.6-.8-.7-.5-.3.8zm.2 2.8c-.2-.2-.3-.3-.4-.1 0 .2 0 .5.2 1.1.1.6.3.9.4 1.1.1.2.2.1.3-.2.1-.8-.1-1.4-.5-1.9zm-.1 4.7c.2 1 .5 1.3.7.9.4-.3.3-.8-.2-1.5-.6-.6-.8-.4-.5.6zm.1 4.2c.2 1 .5 1.3.7.9.4-.2.3-.7-.1-1.5-.3-.5-.5-.3-.6.6zm.2 3.3c-.1.5 0 .8.2 1 .2.2.4.2.4 0 .2-.4.1-.9-.4-1.5-.4-.8-.5-.7-.2.5zm.5 3.6c-.5-.8-.6-.4-.2 1.1.1.6.3.9.4 1 .1.1.2 0 .3-.3.1-.5-.1-1.1-.5-1.8zm2.2 19.7c.4-.2.3-.8-.2-1.5-.4-.3-.6-.2-.5.6.1.4.2.7.3.9.2.2.3.2.4 0zm-1.1-7.7c.1-.3.1-.7 0-1.1-.1-.4-.2-.9-.3-1.3-.3-.4-.4-.5-.5-.3 0 .2 0 .6.2 1.2.4 1.4.6 1.9.6 1.5zm-1.1-6.2c.2.6.3 1 .4 1.2.1.2.2.2.3-.1.1-.6-.1-1.4-.6-2.3-.2-.4-.4-.5-.3-.2.2.2.2.7.2 1.4zm4.1 14.5c.5 2.8.8 4 .8 3.5s-.2-3.1-.8-7.7c-.4-3.2-.7-6.5-.9-9.9-.2-3.4-.4-5.9-.5-7.5 0-1.8 0-4-.1-6.7s-.2-5.1-.2-7.2c-.1-2-.2-4.1-.5-6.2-.2-2.1-.4-3.6-.6-4.4-.4-1.5-.6-2.2-.7-2.2-.1.1 0 1.2.1 3.4.2 1.3.3 3.5.4 6.6.1 3.1.2 6.2.3 9.5.2 6.8.5 12.2.9 16.1.4 4 1 8.2 1.8 12.7zm2.1-8.7c.1-.9-.1-1.7-.6-2.3-.3-.5-.3-.2 0 .9 0 .7.1 1.2.2 1.5.2.2.3.2.4-.1zm-.6-6.5c.1-1.4 0-2.7-.4-4.1-.2-.7-.3-1-.3-.8 0 .2-.1.6-.2 1.4 0 .6 0 1.3.1 2.1s.2 1.5.3 2c.5 1.9.7 1.7.5-.6zM595.79 436.717c4.3 1.3 7.3 2.4 8.9 3.2 1.6.8 3.3 2.4 5 4.6 3.2 4.2 5.3 10.3 6.5 18.1 1.2 7.8 1.4 17 .6 27.5-1 14.2-3.3 26.1-6.8 35.7-3.5 9.6-7.6 16-12.4 19.3-2.3 1.5-4.3 2.3-5.8 2.6-1.6.2-3.5.1-5.7-.6-2.6-.7-4.3-1-5.1-.8-1.4.3-3.3.1-5.9-.9-2.5-.9-5-2.2-7.5-3.9-2.5-1.7-4.5-3.4-6-5.3-3.2-4.1-5.7-9.5-7.4-16.4-1.7-6.8-2.6-14.5-2.6-22.9 0-8.4.8-17 2.7-25.8 1.6-7.7 3.8-14.4 6.6-20.2 2.8-5.8 5.7-10.1 8.9-12.9 3.2-2.8 6-3.4 8.7-1.8.9.5 2.8.4 5.9-.4 2-.5 3.6-.7 4.9-.6 1.3.2 3.5.7 6.5 1.5zm13.6 43.8c.2 1 .5 1.3.7.9.2-.5 0-1-.4-1.7-.5-.7-.6-.4-.3.8zm-49.8 11.6c.2.8.5 1.1.9.9.2-.3.1-.8-.4-1.5-.3-.8-.5-.6-.5.6zm1.1 17c-.6-3.1-.9-4-.9-2.7 0 1.3.3 3.2.7 5.5.4 2.3.8 3.3 1 3 0-.1-.1-.8-.3-1.9-.1-1.1-.3-2.4-.5-3.9zm-.8-6.9c.1.6.2.8.3.8.1 0 .1-.5.2-1.4 0-.6 0-1.3-.1-2 0-.7-.1-1.3-.2-1.7-.3-1.4-.5-1.2-.5.6v2c.1.7.2 1.3.3 1.7zm3-3c.1-6.1.3-11.4.7-16 .3-4.6.7-8.4 1.2-11.3.6-3.1.8-4.9.7-5.3-.1-.4-.5.8-1.1 3.6-1.1 5-1.9 11-2.2 17.8-.4 6.8-.3 13.4.2 19.6.5 6.2 1.4 11.1 2.7 14.5.8 2.2 1.3 3 1.3 2.5s-.4-3.2-1.4-8c-1.3-6.6-2-12.3-2.1-17.4zm10.4 15c.2-.4.1-.8-.4-1.5-.5-.8-.6-.6-.3.5.1.4.2.7.3.9.2.3.3.3.4.1zm-6.5-32.6c.2-2.6.6-5.5 1.1-8.6.5-3.2.9-5.7 1.3-7.6.4-2 .7-3.7 1-5 .3-1.3.3-2 .2-2-.1 0-.5 1.1-1 3-.5 2-1.1 4.4-1.6 7.2-.6 3-1.1 6.5-1.6 10.6-.4 4.1-.7 8.3-.9 12.6-.1 4.3-.1 8.1 0 11.5.1 3.4.3 5.8.7 7.4.1.4.2-.3.2-2.1.1-1.8.1-4.1 0-6.9 0-2.9.1-6.4.2-10.4.1-3.9.2-7.1.4-9.7zm42.9 20.6c.7-.8.8-1.3.3-1.6-.5-.3-.8.1-.8 1.3-.2 1.1 0 1.2.5.3zm1.1-7.1c-.1-1.1-.3-1.4-.4-.8-.4 1-.5 2.1-.5 3.5 0 1.3.2 1.6.4.8.2-.4.4-.9.4-1.5.1-.8.1-1.4.1-2zm-9-37.1c-.7-3.8-1.6-7.2-2.8-10-1.2-2.8-2.3-4.4-3.3-4.8-.5-.3-1.6.2-3.4 1.6-1.7 1.4-3.6 3.1-5.5 5.1-1.9 2-3.5 4-4.8 6-2.4 3.6-4 7.4-4.9 11.5-.9 4.1-1.4 9.9-1.6 17.5-.3 7.6-.2 14.4.2 20.3s1.2 11.2 2.4 15.9c1 3.9 2.2 7.6 3.7 11 1.5 3.4 2.7 5 3.5 4.8.1 0 .5-.4 1.1-.9l2.1-2.1c.7-.9 1.4-1.9 2.3-2.9.9-1 1.5-1.9 1.9-2.6 2.1-3 3.8-7.4 5.4-13.2 1.5-5.8 2.8-12.2 3.7-19.2.9-7 1.4-13.9 1.4-20.6 0-6.6-.5-12.5-1.4-17.4zm9.8 29.5c.1-.8.1-1.5.2-2.2v-1.5c-.1-.3-.2-.3-.4.1-.2.3-.3 1-.4 1.9-.1 2-.1 3.2 0 3.7.1.4.3-.3.6-2zm-2.2-13.4c-.1 1.5 0 2.6.2 3.4.2.8.4.6.6-.4.2-1 .1-2.1-.2-3.5-.2-.7-.3-1-.3-.8-.2.1-.2.5-.3 1.3zm2.3 7.6c.4-.2.3-.7-.2-1.5-.4-.3-.6-.2-.5.6.1.4.2.7.3.9.2.2.3.2.4 0zm.3-5.8c.2-.4.1-.9-.4-1.7-.5-.8-.6-.5-.2.7.2 1 .4 1.3.6 1zm-2.4-10.6c-.3-1.9-.5-2.5-.6-2-.1.5 0 2 .4 4.5.2 2.6.4 3.2.7 1.8 0-.6 0-1.3-.1-2.2-.1-.8-.2-1.5-.4-2.1zm2.5 7.2c.2-.5 0-1-.4-1.7-.5-.8-.6-.6-.3.5.2 1.2.5 1.5.7 1.2zm-2.8-11.3c.1-.9-.2-2-.8-3.2-.3-.5-.4-.6-.3-.4.1.3.2.9.3 1.9.2.8.4 1.4.5 1.8.1.4.2.4.3-.1zm2.6 6.9c.2-.3.1-.8-.4-1.5-.5-.8-.6-.6-.3.6 0 .4 0 .8.2.9.2.2.4.2.5 0zM654.412 530.054c-8.4 0-14.4-2.2-17.9-6.7-3.4-4.2-6-9.9-7.7-17.1-1.7-7.2-2.8-16.1-3.2-26.5-.3-13.2.3-24.6 1.8-34.1 1.6-9.5 3.7-15.3 6.5-17.3 1-.7 1.7-1.1 2.1-1.1.4 0 .9.3 1.7 1 1.4.8 2.8 1.2 4.3 1.1 3 .2 4.8 1.4 5.4 3.8.1.6.2 2.5.1 5.8s-.3 7-.6 11c-.9 14.9-1.2 27.8-.9 38.5.3 10.7 1.4 19.6 3.3 26.7l1.5 6.1 1.9-3.8c1.5-2.9 2.8-6.9 4-12 1.2-5.1 2.1-10.7 2.9-16.7.7-6 1-11.7.9-17-.1-5 .4-8 1.4-8.8 1-.9 1.8-1 2.6-.4.8.7 2 1 3.8.8 3.1 0 5.3.3 6.8 1 1.4.7 2.6 2.5 3.5 5.4.9 2.9 1.9 7.8 3.2 14.6 1.4 7.5 2.8 13.8 4.3 18.9 1.4 5.1 2.5 8 3.3 8.5.7.4 1.7-1.3 3-5.2 1.3-3.9 2.5-8.4 3.6-13.6.9-4.2 1.7-9 2.3-14.4.7-5.3 1.1-10.7 1.4-16 .3-5.3.3-10 .1-13.9-.2-2.5-.5-5.8-.9-9.9-.4-4.1-.9-7.8-1.4-11.1-.5-3.3-.9-6.2-1.1-8.8-.2-2.6-.3-4-.2-4.2.5-.9 1.8-.8 3.7.1 1.9.9 3.4 2.1 4.4 3.7.8 1.3 1.6 3.6 2.5 6.8.9 3.3 1.7 6.8 2.5 10.8.8 3.9 1.2 7.4 1.5 10.6.2 2 .3 5 .4 8.8.1 3.8.2 7.4.2 10.8 0 18.2-1.6 32.2-4.7 41.9-3.1 9.7-7.5 14.4-13.1 14.2-.6-.1-1.3-.2-2.1-.4-.8-.1-1.4-.2-1.8-.2-.5-.2-1.1-.3-1.9-.3-.7 0-1.4-.1-2-.1-3 0-6.1-1.5-9.4-4.3-3.3-2.9-6.1-6.7-8.3-11.5l-2.2-4.5-2.5 11.3c-2.8 11.5-5.8 17.5-9 17.7zm17.2-57c-.2.3-.1 1.6.5 3.9.5 1.8.8 2.6.9 2.3.2-.3 0-1.5-.4-3.8 0-.7-.2-1.3-.4-1.9-.2-.6-.4-.7-.6-.5zm2 11.5c-.3-.5-.4-.6-.3-.4.1.3.2.9.5 1.9.4 1.7.6 2.2.6 1.6 0-.9-.2-1.9-.8-3.1zm-3.5-5.8c-.3.7-.3 2.1 0 4.4.3 2.2.7 4.7 1.4 7.3.7 2.7 1.4 5.1 2.1 7.5.6 1.6 1 3 1.5 4.2.4 1.2.7 1.8.7 1.8.1 0 0-1.1-.5-3.2s-1.1-4.7-1.8-7.8c-.7-2.9-1.4-5.7-2-8.3-.6-2.6-.9-4.2-.9-4.8.1-.8.1-1.2 0-1.4-.2-.4-.3-.2-.5.3zm-.8 9.1c-.3-.5-.2-.1.1 1.3.4 1.5.6 2 .6 1.4 0-1.1-.3-2-.7-2.7zm-28.8 20.3c0-1-.2-2-.7-2.9-.2-.2-.3-.2-.3.1 0 .3.1.8.3 1.5.2.7.3 1.2.5 1.4 0 .2.1.2.2-.1zm-1.1-8.2c0-1.1-.2-2.2-.8-3.4-.2-.4-.4-.4-.4-.1 0 .3.1.9.3 1.7.2.9.4 1.5.6 1.8.1.3.2.3.3 0zm-1-36c.1-5.5.1-8.5 0-9.1-.4-.2-.6 1.2-.9 4.2-.2 3-.3 6.7-.4 11 0 4.3 0 8.4.1 12.3.1 3.9.3 6.7.5 8.4l.6 4.1-.1-3.8c0-1.2 0-2.8-.1-5-.1-2.1-.1-4.2 0-6.1-.1-2.1-.1-4.7 0-7.8.1-3 .1-5.8.3-8.2zm2.6-30.5c-.1 0-.4 1-.8 2.9-.3 1.9-.7 4-1 6.5-.3 2.5-.6 4.7-.9 6.7-.2 2-.3 3.2-.2 3.6.2.7.4.5.6-.7.2-1.2.7-4.2 1.4-9.1.4-2.7.6-5.1.8-7 .2-2 .3-2.9.1-2.9zm-6.5 40.8c.1.9.1 1.2.2.9.1-.2.2-1 .3-2.4 0-1.2.1-3.3.2-6.3s.4-6 .7-8.9c.5-6.9.7-10.8.8-11.6 0-.8-.2-.1-.6 2.2-.2 1.5-.5 4.1-.8 7.7-.3 3.6-.5 7.1-.7 10.6-.2 3.6-.2 6.2-.1 7.8zm0 7.1c-.1 2.2.1 5.1.4 8.6.3 3.5.7 7 1.2 10.5s1.1 6.5 1.7 9l2 7.1-1.7-9.4c-.5-2.6-1-5.5-1.4-8.8-.5-3.3-.7-6-.8-8-.4-6.3-.7-10-.8-11-.3-1.1-.4-.4-.6 2zm0 19.4c-.2-.4-.4-.5-.4-.3s0 .6.2 1.3c.2.7.3 1.2.5 1.5.1.3.2.2.3-.1.1-.7-.1-1.5-.6-2.4z" class="st4"/><path d="M39.804 320.409c-5 3.8-9.3 7.4-13 10.8-3.7 3.4-5.8 5.8-6.5 7.2-.7 1.6-.9 3-.5 4.4.4 1.2 1.8 3.6 4.4 7.1 2.6 3.5 5.6 7.4 9.1 11.7 3.5 4.3 6.9 8.2 10.2 11.9 5.2 5.6 8.2 9.3 9.2 11.1.9 1.9.4 3-1.8 3.4-.9.2-1.9-.1-2.9-.8-1-.7-2.7-2.2-4.9-4.4-6.9-7-13.1-13.7-18.5-20.2s-9.7-12.2-12.9-17.4c-3.2-5.1-4.8-9-4.9-11.6-.1-2 .7-4.3 2.5-6.9 1.8-2.6 5-6.1 9.7-10.6 4.7-4.5 11.3-10.3 19.8-17.7 8.7-7.3 15.1-12.6 19.2-15.8 4.1-3.2 7-5 8.7-5.4 1.2-.4 2.1-.4 2.6 0 .6.3 1.2 1.2 2.1 2.5.7.7 1.3 1.4 1.8 2.1.6.7.9 1 1.1 1 .8 0 1.2.6 1.4 1.9.2 1.3-.1 2.6-.8 3.8-.8 1.6-3 4-6.5 7.4-3.5 3.4-7.7 7.2-12.6 11.5-5.1 4.5-10.4 8.7-16 13zm16.1-23.1c-1.6 1.5-3 2.7-4.1 3.8-1.1 1.1-1.6 1.6-1.4 1.6.2 0 .9-.6 2.3-1.8 1.4-1.2 3-2.6 4.9-4.3 1.9-1.6 3.8-3.4 5.8-5.2 2-1.9 3.5-3.2 4.5-4 1.2-1.3 1.7-1.9 1.5-1.9-.2 0-1.1.8-2.9 2.4-1.3 1.1-3.1 2.6-5.2 4.5-2 1.8-3.8 3.4-5.4 4.9zm-32.6 27.8c-.1.3.1.2.8-.2.7-.5 1.5-1.2 2.5-2.2 1.2-1 2.2-1.9 2.9-2.7.7-.8 1.1-1.3 1.1-1.4 0-.2-.6.3-1.7 1.2-1.1 1-2.2 2-3.4 3-1.2 1.1-1.9 1.9-2.2 2.3zm-10.4 8.6c0 .5.1.6.3.4.1-.2.4-.6.7-1.2.4-.6.8-1.3 1.4-1.9l2.1-2.9-2.2 2.4c-1.5 1.6-2.3 2.6-2.3 3.2zm2.5-.1c-.6 1.1-.6 1.4-.1.9.5-.5 1.8-2.2 4-5.1l3.2-4.1-3.3 3.1c-.9 1-1.7 1.9-2.4 2.9-.6 1.1-1.1 1.8-1.4 2.3zM518.113 356.906c-1.6-.5-2.6-1.5-3-2.8-.4-1.4-.3-2.8.4-4.4.3-.6 1.5-2.2 3.6-4.6 2.2-2.5 4.7-5.1 7.4-7.9 8.7-9 16-17.1 21.8-24.1 5.8-7 9.5-12.4 11.1-16.2.7-1.4.9-2.4.8-2.9-.2-.5-.9-1.7-2.2-3.4-2.6-3.1-5.4-6.5-8.5-10.4-3-3.8-5.9-7.5-8.7-11.1-2.8-3.5-5.2-6.6-7.1-9.3-2-2.7-3.1-4.4-3.5-5.1-2.2-4.2-1.6-5.9 1.6-5.1.6.1 2.5 1.8 5.5 5.1 3.1 3.3 6.7 7.3 11 12.1 4.2 4.8 8.4 9.7 12.6 14.8 4.2 5.1 7.7 9.5 10.7 13.3 2 2.5 3.3 4.7 4 6.6.7 1.9.5 4.1-.7 6.6s-3.5 5.9-7.1 10.1c-3.5 4.2-8.6 10-15.1 17.2-5.6 6.2-10.1 11.2-13.5 14.8-3.3 3.6-6 6.2-7.9 7.9-1.9 1.6-3.4 2.6-4.7 2.9-1.2.3-2.4.3-3.7.1-1.5-.4-2.3-1-2.2-2 0-1.1-.9-1.8-2.6-2.2zm39.4-42.4c-1.6 2.1-2.4 3.2-2.6 3.5-.1.2.5-.3 2-1.6.9-.8 2-2.1 3.2-3.9s2.4-3.3 3.4-4.8c1-1.4 1.8-2.8 2.4-4 .6-1.3.9-2 .9-2.1 0-.5-.9.7-2.6 3.4-.7 1.2-1.7 2.8-3.1 4.7-1.2 1.9-2.4 3.5-3.6 4.8zm-10.5 15.4-13.2 15.1 14.8-16.1c4.1-4.3 7.8-8.5 11.2-12.5 3.4-4 5.4-6.6 5.9-7.7 1.3-1.9 1.8-2.8 1.7-2.6-.1.2-1.1 1.3-3 3.6-1 1.4-3.2 4.1-6.6 8-3.4 4-7 8.1-10.8 12.2z" class="st1"/></svg>